<svg id="Layer_1" data-name="Layer 1" xmlns="http://www.w3.org/2000/svg" viewBox="0 0 20 20"><defs><style>.cls-1{fill:#6fd7a3;}.cls-2{fill:#0cafa1;}.cls-3{fill:#eef5f6;}.cls-4{fill:#231f20;}</style></defs><path class="cls-1" d="M10.23,20.37A9.67,9.67,0,1,0,.56,10.7,9.67,9.67,0,0,0,10.23,20.37Z" transform="translate(-0.23 -0.7)"/><path class="cls-2" d="M10.23,1A9.67,9.67,0,0,0,3.4,17.54L17.07,3.86a9.75,9.75,0,0,0-3.14-2.09A9.58,9.58,0,0,0,10.23,1Z" transform="translate(-0.23 -0.7)"/><path class="cls-3" d="M14.56,9.37h-3v-3a1.33,1.33,0,1,0-2.66,0v3h-3a1.36,1.36,0,0,0-1,.39,1.33,1.33,0,0,0,0,1.88,1.36,1.36,0,0,0,1,.39h3v3a1.33,1.33,0,1,0,2.66,0V12h3a1.33,1.33,0,1,0,0-2.66Z" transform="translate(-0.23 -0.7)"/><path class="cls-4" d="M10.23,20.7a10,10,0,1,1,7.07-2.93A10,10,0,0,1,10.23,20.7Zm0-19.33A9.33,9.33,0,0,0,1.08,12.52a9.31,9.31,0,0,0,7.33,7.33A9.33,9.33,0,1,0,10.23,1.37Z" transform="translate(-0.23 -0.7)"/><path class="cls-4" d="M9.57,2.73a.34.34,0,0,1-.24-.09.31.31,0,0,1-.11-.23.34.34,0,0,1,.09-.24.3.3,0,0,1,.23-.11q.35,0,.69,0a.34.34,0,0,1,.34.34.34.34,0,0,1-.1.23.35.35,0,0,1-.24.1c-.21,0-.43,0-.64,0Z" transform="translate(-0.23 -0.7)"/><path class="cls-4" d="M1.9,11a.34.34,0,0,1-.24-.09.37.37,0,0,1-.1-.24A8.63,8.63,0,0,1,8.15,2.29a.31.31,0,0,1,.25,0,.32.32,0,0,1,.15.21.31.31,0,0,1,0,.25.32.32,0,0,1-.21.15A8,8,0,0,0,2.23,10.7a.33.33,0,0,1-.1.24A.32.32,0,0,1,1.9,11Z" transform="translate(-0.23 -0.7)"/><path class="cls-4" d="M10.23,16.7A1.67,1.67,0,0,1,8.56,15V12.37H5.9A1.67,1.67,0,0,1,5.9,9H8.56V6.37a1.66,1.66,0,0,1,.49-1.18,1.67,1.67,0,0,1,2.36,0,1.66,1.66,0,0,1,.49,1.18V9h2.66a1.66,1.66,0,0,1,1.18.49,1.67,1.67,0,0,1,0,2.36,1.66,1.66,0,0,1-1.18.49H11.9V15a1.67,1.67,0,0,1-1.67,1.67ZM5.9,9.7a1,1,0,0,0-1,1,1,1,0,0,0,.29.71,1,1,0,0,0,.71.29h3a.34.34,0,0,1,.33.33v3a1,1,0,0,0,.29.71,1,1,0,0,0,.71.29,1,1,0,0,0,1-1V12a.33.33,0,0,1,.1-.23.3.3,0,0,1,.23-.1h3a1,1,0,0,0,.71-.29,1,1,0,0,0,.29-.71,1,1,0,0,0-1-1h-3a.34.34,0,0,1-.33-.33v-3a1,1,0,0,0-1-1,1,1,0,0,0-.71.29,1,1,0,0,0-.29.71v3a.3.3,0,0,1-.1.23.33.33,0,0,1-.23.1Z" transform="translate(-0.23 -0.7)"/></svg>