<svg id="Layer_1" data-name="Layer 1" xmlns="http://www.w3.org/2000/svg" viewBox="0 0 56 56"><defs><style>.cls-1{fill:#0cafa1;}.cls-2{fill:#6fd7a3;}.cls-3{fill:#eef5f6;}</style></defs><path class="cls-1" d="M28,55.18A27.18,27.18,0,1,0,.82,28,27.18,27.18,0,0,0,28,55.18Z"/><path class="cls-2" d="M29.58,55.13c-.53,0-1,0-1.58,0A27.18,27.18,0,0,1,28,.82c.53,0,1.05,0,1.58.05a27.18,27.18,0,0,0,0,54.26Z"/><path class="cls-3" d="M28,50.8A22.8,22.8,0,1,0,5.2,28,22.8,22.8,0,0,0,28,50.8Z"/><path class="cls-1" d="M26.56,41.45a3.91,3.91,0,0,1-3-1.44L15.27,29.8a3.89,3.89,0,0,1,6.05-4.9l4.53,5.6,7.22-13.85A3.89,3.89,0,1,1,40,20.24L30,39.35A3.86,3.86,0,0,1,27,41.43Z"/><path class="cls-2" d="M28.09,33.26l8.66-16.61A3.89,3.89,0,0,1,38.36,15l0,0a3.89,3.89,0,0,0-5.25,1.66L25.85,30.5Z"/><path class="cls-2" d="M27.22,40,19,29.8a3.89,3.89,0,0,1,.57-5.47,3.76,3.76,0,0,1,.61-.4,3.89,3.89,0,0,0-4.86,5.87L23.54,40a3.9,3.9,0,0,0,3,1.44l.39,0A3.78,3.78,0,0,0,28.4,41,3.93,3.93,0,0,1,27.22,40Z"/><path d="M28,56A28,28,0,0,1,2.3,16.87a.82.82,0,0,1,1.51.65A26.36,26.36,0,0,0,28,54.36a26.36,26.36,0,0,0,18.64-45A26.38,26.38,0,0,0,14.93,5.1a26.63,26.63,0,0,0-9.41,9.13.82.82,0,0,1-1.4-.86A28,28,0,0,1,28,0,28,28,0,0,1,47.8,47.8,27.81,27.81,0,0,1,28,56Z"/><path d="M28,51.62A23.62,23.62,0,1,1,51.62,28,24,24,0,0,1,51,33.6a.83.83,0,0,1-1,.6.82.82,0,0,1-.6-1A22.23,22.23,0,0,0,50,28a22,22,0,1,0-1.79,8.7.82.82,0,1,1,1.5.65A23.62,23.62,0,0,1,28,51.62Z"/><path d="M26.56,42.27a4.69,4.69,0,0,1-3.66-1.75l-4.2-5.18a.82.82,0,1,1,1.28-1l4.2,5.18a3,3,0,0,0,2.38,1.14l.31,0A3,3,0,0,0,29.28,39l10-19.11a3.06,3.06,0,0,0-1.3-4.14A3.08,3.08,0,0,0,33.8,17L26.58,30.88a.82.82,0,0,1-1.37.14l-4.53-5.6A3.07,3.07,0,0,0,15.24,27a3,3,0,0,0,.67,2.25l1.66,2.06a.82.82,0,0,1-1.27,1l-1.67-2a4.71,4.71,0,0,1,4.15-7.65A4.65,4.65,0,0,1,22,24.39L25.7,29l6.64-12.74A4.72,4.72,0,0,1,35.11,14a4.63,4.63,0,0,1,3.59.32,4.71,4.71,0,0,1,2,6.35l-10,19.11A4.71,4.71,0,0,1,27,42.24,3.59,3.59,0,0,1,26.56,42.27Z"/></svg>