<svg xmlns="http://www.w3.org/2000/svg" viewBox="0 0 17.5 11.25">
	<path
		d="M17.67,5.68a.6.6,0,0,0-.18-.44.62.62,0,0,0-.44-.18H2.3L6.24,1.12a.53.53,0,0,0,.13-.2.52.52,0,0,0,0-.24.52.52,0,0,0,0-.24.63.63,0,0,0-.13-.2A.66.66,0,0,0,6,.1a.69.69,0,0,0-.24,0A.6.6,0,0,0,5.56.1a.6.6,0,0,0-.21.14l-5,5a.62.62,0,0,0-.13.68.69.69,0,0,0,.13.2l5,5a.6.6,0,0,0,.21.14.6.6,0,0,0,.24.05A.69.69,0,0,0,6,11.26a.66.66,0,0,0,.2-.14.53.53,0,0,0,.13-.2.6.6,0,0,0,0-.48.63.63,0,0,0-.13-.2L2.3,6.31H17.05a.63.63,0,0,0,.44-.19A.59.59,0,0,0,17.67,5.68Z"
		transform="translate(-0.17 -0.05)" />
</svg>
