<svg xmlns="http://www.w3.org/2000/svg" viewBox="0 0 11.25 17.5">
	<path
		d="M12,5.53a.66.66,0,0,0-.14-.2l-5-5a.6.6,0,0,0-.2-.14.64.64,0,0,0-.24,0,.67.67,0,0,0-.24,0A.9.9,0,0,0,6,.33l-5,5a.66.66,0,0,0-.14.2.67.67,0,0,0,0,.24A.64.64,0,0,0,.82,6,.6.6,0,0,0,1,6.22a.86.86,0,0,0,.2.13.69.69,0,0,0,.24.05.64.64,0,0,0,.24-.05.58.58,0,0,0,.2-.13L5.78,2.28V17a.59.59,0,0,0,.18.44.63.63,0,0,0,.44.19A.65.65,0,0,0,7,17V2.28L11,6.22a.86.86,0,0,0,.2.13.69.69,0,0,0,.24.05.64.64,0,0,0,.24-.05.58.58,0,0,0,.2-.13A.6.6,0,0,0,12,6a.64.64,0,0,0,0-.24A.69.69,0,0,0,12,5.53Z"
		transform="translate(-0.78 -0.15)" />
</svg>
