<svg xmlns="http://www.w3.org/2000/svg" viewBox="0 0 17.5 11.18"><path d="M17.45,5.39a.46.46,0,0,0-.13-.2l-5-5a.66.66,0,0,0-.2-.14,1,1,0,0,0-.24,0,.69.69,0,0,0-.24.05.6.6,0,0,0-.21.14.63.63,0,0,0-.13.2.69.69,0,0,0-.05.24.69.69,0,0,0,.05.24.86.86,0,0,0,.13.2l3.94,3.93H.63a.64.64,0,0,0-.45.19A.62.62,0,0,0,0,5.63a.67.67,0,0,0,.18.44.63.63,0,0,0,.45.18H15.37l-3.94,3.94a.63.63,0,0,0-.13.2.57.57,0,0,0,0,.48.86.86,0,0,0,.13.2.6.6,0,0,0,.21.14.49.49,0,0,0,.24,0h.24a.66.66,0,0,0,.2-.14l5-5a.63.63,0,0,0,.13-.2A.57.57,0,0,0,17.45,5.39Z" transform="translate(0 -0.04)" fill-rule="evenodd"/></svg>