<svg xmlns="http://www.w3.org/2000/svg" viewBox="0 0 15 14.4">
	<path d="M3.51,3l6-1.63L9.17.77A.84.84,0,0,0,8,.39L2.69,3Z" transform="translate(0 -0.3)" />
	<path d="M11.34,1.46a.83.83,0,0,0-.22,0l-1.41.38L5.42,3h7l-.27-1A.83.83,0,0,0,11.34,1.46Z"
		transform="translate(0 -0.3)" />
	<path
		d="M13.29,3.63H.84A.81.81,0,0,0,.19,4a.73.73,0,0,0-.16.3.83.83,0,0,0,0,.22v9.39a.85.85,0,0,0,.84.84H13.29a.84.84,0,0,0,.84-.84V11.51h-5A1.44,1.44,0,0,1,7.7,10.08V8.2A1.46,1.46,0,0,1,9,6.78h5.17V4.47A.83.83,0,0,0,13.29,3.63Z"
		transform="translate(0 -0.3)" />
	<path
		d="M14.73,7.58a.92.92,0,0,0-.3-.18.8.8,0,0,0-.27,0h-5a.84.84,0,0,0-.85.84v1.87a.85.85,0,0,0,.85.85h5a.81.81,0,0,0,.27-.05,1.11,1.11,0,0,0,.3-.17.89.89,0,0,0,.27-.63V8.2A.85.85,0,0,0,14.73,7.58ZM10.9,9.3a.43.43,0,0,1-.43.43h-.28a.42.42,0,0,1-.42-.43V9a.44.44,0,0,1,.17-.34.45.45,0,0,1,.25-.09h.28A.43.43,0,0,1,10.9,9Z"
		transform="translate(0 -0.3)" />
</svg>
