<svg xmlns="http://www.w3.org/2000/svg" viewBox="0 0 17 17">
	<g>
		<path
			d="M17,17.5H3A1.5,1.5,0,0,1,1.5,16V6.57h0V3.78A1.5,1.5,0,0,1,3,2.28H17a1.5,1.5,0,0,1,1.5,1.5V6.57h0V16A1.5,1.5,0,0,1,17,17.5ZM2.5,7.07V16a.5.5,0,0,0,.5.5H17a.5.5,0,0,0,.5-.5V7.07Zm0-1h15V3.78a.5.5,0,0,0-.5-.5H3a.5.5,0,0,0-.5.5Z"
			transform="translate(-1.5 -0.5)" />
		<path d="M5.55,4.17a.51.51,0,0,1-.5-.5V1a.5.5,0,0,1,.5-.5.5.5,0,0,1,.5.5V3.67A.5.5,0,0,1,5.55,4.17Z"
			transform="translate(-1.5 -0.5)" />
		<path d="M14.45,4.17a.5.5,0,0,1-.5-.5V1a.5.5,0,0,1,.5-.5A.5.5,0,0,1,15,1V3.67A.51.51,0,0,1,14.45,4.17Z"
			transform="translate(-1.5 -0.5)" />
	</g>
</svg>
