<svg xmlns="http://www.w3.org/2000/svg" viewBox="0 0 17 17">
	<path
		d="M8.15,13.29a.45.45,0,0,1-.34-.14L5.14,10.61a.5.5,0,1,1,.69-.72L8.15,12.1l7-6.67a.5.5,0,0,1,.71,0,.49.49,0,0,1,0,.7l-7.33,7A.47.47,0,0,1,8.15,13.29Z"
		transform="translate(-1.98 -0.29)" />
	<path
		d="M16.48,17.29h-12A2.51,2.51,0,0,1,2,14.79v-12A2.51,2.51,0,0,1,4.48.29h12A2.5,2.5,0,0,1,19,2.79v12A2.5,2.5,0,0,1,16.48,17.29Zm-12-16A1.51,1.51,0,0,0,3,2.79v12a1.5,1.5,0,0,0,1.5,1.5h12a1.5,1.5,0,0,0,1.5-1.5v-12a1.5,1.5,0,0,0-1.5-1.5Z"
		transform="translate(-1.98 -0.29)" />
</svg>
