<svg id="Layer_1" data-name="Layer 1" xmlns="http://www.w3.org/2000/svg" viewBox="0 0 14 14">
	<path class="cls-1"
		d="M14.1,4.93A7,7,0,0,0,5,1.15,7,7,0,1,0,14.1,4.93Zm-3.85,5a.48.48,0,0,1-.12.16.42.42,0,0,1-.16.11.43.43,0,0,1-.19,0,.45.45,0,0,1-.35-.15L7.63,8.32,5.86,10.11a.47.47,0,0,1-.35.15.41.41,0,0,1-.19,0,.36.36,0,0,1-.16-.11.48.48,0,0,1,0-.7l1.77-1.8L5.16,5.84A.44.44,0,0,1,5,5.5a.48.48,0,0,1,.14-.34A.52.52,0,0,1,5.52,5a.49.49,0,0,1,.34.12L7.63,6.91,9.4,5.14A.42.42,0,0,1,9.56,5a.46.46,0,0,1,.2,0A.43.43,0,0,1,10,5a.45.45,0,0,1,.17.11.46.46,0,0,1,.11.16.43.43,0,0,1,0,.19.69.69,0,0,1,0,.2.46.46,0,0,1-.11.16L8.34,7.61l1.79,1.77a.66.66,0,0,1,.12.17.65.65,0,0,1,0,.2A.71.71,0,0,1,10.25,10Z"
		transform="translate(-0.63 -0.61)" />
</svg>
