<svg id="Layer_1" data-name="Layer 1" xmlns="http://www.w3.org/2000/svg" xmlns:xlink="http://www.w3.org/1999/xlink" viewBox="0 0 20 20"><defs><style>.cls-1{fill:url(#radial-gradient);}.cls-2{fill:url(#linear-gradient);}.cls-3{fill:url(#linear-gradient-2);}.cls-4{fill:url(#linear-gradient-3);}.cls-5{fill:url(#linear-gradient-4);}.cls-6{fill:url(#radial-gradient-2);}.cls-7{fill:url(#radial-gradient-3);}.cls-8{fill:url(#radial-gradient-4);}.cls-9{fill:url(#radial-gradient-5);}.cls-10{fill:url(#linear-gradient-5);}.cls-11{fill:url(#linear-gradient-6);}</style><radialGradient id="radial-gradient" cx="-607.48" cy="359.19" r="1" gradientTransform="matrix(10.42, 0, 0, -10.42, 6336.66, 3750.74)" gradientUnits="userSpaceOnUse"><stop offset="0" stop-color="#ffa700"/><stop offset="0.32" stop-color="#fca300"/><stop offset="0.66" stop-color="#f39600"/><stop offset="1" stop-color="#e58200"/></radialGradient><linearGradient id="linear-gradient" x1="10" y1="13.58" x2="10" y2="-4.29" gradientTransform="matrix(1, 0, 0, -1, 0, 22)" gradientUnits="userSpaceOnUse"><stop offset="0" stop-color="#e58200" stop-opacity="0"/><stop offset="0.04" stop-color="#e27f04" stop-opacity="0.04"/><stop offset="0.47" stop-color="#c15d2f" stop-opacity="0.47"/><stop offset="0.8" stop-color="#ad4949" stop-opacity="0.8"/><stop offset="1" stop-color="#a64153"/></linearGradient><linearGradient id="linear-gradient-2" y1="9.58" x2="10" y2="27.64" xlink:href="#linear-gradient"/><linearGradient id="linear-gradient-3" y1="11.7" x2="10" y2="5.92" xlink:href="#linear-gradient"/><linearGradient id="linear-gradient-4" y1="9.81" x2="10" y2="19.65" xlink:href="#linear-gradient"/><radialGradient id="radial-gradient-2" cx="-624" cy="368.36" r="1" gradientTransform="matrix(14, 0, 0, -14, 8741.88, 5164.07)" gradientUnits="userSpaceOnUse"><stop offset="0" stop-color="#ffc738"/><stop offset="0.28" stop-color="#ffc534"/><stop offset="0.54" stop-color="#ffbf29"/><stop offset="0.78" stop-color="#ffb417"/><stop offset="1" stop-color="#ffa700"/></radialGradient><radialGradient id="radial-gradient-3" cx="-595.26" cy="352.4" r="1" gradientTransform="matrix(8.76, 0, 0, -8.76, 5221.77, 3095.93)" gradientUnits="userSpaceOnUse"><stop offset="0" stop-color="#fffcf8"/><stop offset="0.95" stop-color="#fffcf8" stop-opacity="0.05"/><stop offset="1" stop-color="#fffcf8" stop-opacity="0"/></radialGradient><radialGradient id="radial-gradient-4" cx="-607.79" cy="362.34" gradientTransform="matrix(10.47, 0, 0, -11.42, 6370.87, 4146.69)" xlink:href="#radial-gradient"/><radialGradient id="radial-gradient-5" cx="-608.99" cy="360.03" gradientTransform="matrix(10.67, 0, 0, -10.67, 6502.26, 3847.28)" xlink:href="#radial-gradient-2"/><linearGradient id="linear-gradient-5" x1="12.98" y1="10.04" x2="6.2" y2="11.61" gradientTransform="matrix(1, 0, 0, -1, 0, 22)" gradientUnits="userSpaceOnUse"><stop offset="0" stop-color="#ffa700" stop-opacity="0"/><stop offset="0.02" stop-color="#fea600" stop-opacity="0.02"/><stop offset="0.63" stop-color="#ec8c00" stop-opacity="0.64"/><stop offset="1" stop-color="#e58200"/></linearGradient><linearGradient id="linear-gradient-6" x1="8.67" y1="12" x2="11.12" y2="12" gradientTransform="matrix(1, 0, 0, -1, 0, 22)" xlink:href="#radial-gradient"/></defs><path class="cls-1" d="M20,10A10,10,0,1,1,10,0,10,10,0,0,1,20,10Z"/><path class="cls-2" d="M0,10a10,10,0,0,0,4.68,8.47H15.32a10,10,0,0,0,0-16.94H4.68A10,10,0,0,0,0,10Z"/><path class="cls-3" d="M0,10a10,10,0,0,0,2.52,6.64h15a10,10,0,0,0,0-13.27h-15A9.92,9.92,0,0,0,0,10Z"/><path class="cls-4" d="M0,10a10,10,0,0,0,.91,4.17H19.09a10,10,0,0,0,0-8.34H.91A10,10,0,0,0,0,10Z"/><path class="cls-5" d="M0,10a10.17,10.17,0,0,0,.31,2.49H19.69a10.16,10.16,0,0,0,0-5H.31A10.17,10.17,0,0,0,0,10Z"/><path class="cls-6" d="M9.21,0A10,10,0,0,0,9.21,20,10,10,0,0,0,9.21,0Z"/><path class="cls-7" d="M9.72,1a3.56,3.56,0,0,0-1,0,9.13,9.13,0,0,0,0,18.1,3.56,3.56,0,0,0,1,0A9.13,9.13,0,0,0,9.72,1Z"/><path class="cls-8" d="M15.85,10c0-4-3-7.3-6.68-7.3S2.48,6,2.48,10s3,7.3,6.69,7.3S15.85,14,15.85,10Z"/><path class="cls-9" d="M11,3A4.27,4.27,0,0,0,8.45,3,7.24,7.24,0,0,0,3.6,10a7.22,7.22,0,0,0,5,7.07,4.22,4.22,0,0,0,2.23,0,7.22,7.22,0,0,0,5-7.07A7.24,7.24,0,0,0,11,3Z"/><path class="cls-10" d="M15.78,11.1,11.35,6.68a.91.91,0,0,0-.5-.35A3.68,3.68,0,0,0,10,6.14l-.38-.35a.26.26,0,0,0-.1-.15.38.38,0,0,0-.22-.07.35.35,0,0,0-.23.07A.23.23,0,0,0,9,5.82v.31a2.77,2.77,0,0,0-1.47.59,1.74,1.74,0,0,0-.59,1.42A2.25,2.25,0,0,0,7,8.75a1.1,1.1,0,0,0,.25.48,3.89,3.89,0,0,0,.33.35l0,0L9,11V12.8a1.88,1.88,0,0,1-.84-.25,3,3,0,0,1-.58-.41A.6.6,0,0,0,7.24,12a.42.42,0,0,0-.35.2.69.69,0,0,0-.15.41.87.87,0,0,0,.39.66L10.93,17a7.13,7.13,0,0,0,4.85-5.94Z"/><path class="cls-11" d="M6.74,12.57a.69.69,0,0,1,.15-.41.42.42,0,0,1,.35-.2.6.6,0,0,1,.33.18,3,3,0,0,0,.58.41A1.88,1.88,0,0,0,9,12.8V10.26l-.5-.19L8,9.87a1.59,1.59,0,0,1-.44-.29,3.89,3.89,0,0,1-.33-.35A1.1,1.1,0,0,1,7,8.75a2.27,2.27,0,0,1-.07-.61,1.74,1.74,0,0,1,.58-1.42A2.77,2.77,0,0,1,9,6.13V5.82a.23.23,0,0,1,.09-.18.35.35,0,0,1,.23-.07.38.38,0,0,1,.22.07.21.21,0,0,1,.1.18v.29a4,4,0,0,1,1.22.22c.37.13.55.32.55.56a.73.73,0,0,1-.13.4.38.38,0,0,1-.35.22,2.31,2.31,0,0,1-.47-.19,2.31,2.31,0,0,0-.82-.21V9.3a6.7,6.7,0,0,1,.72.31,3.12,3.12,0,0,1,.6.4,1.65,1.65,0,0,1,.48.65,2.66,2.66,0,0,1,.16.93,2.17,2.17,0,0,1-.53,1.53,2.3,2.3,0,0,1-1.43.71v.36a.21.21,0,0,1-.1.17.38.38,0,0,1-.22.07.35.35,0,0,1-.23-.07A.22.22,0,0,1,9,14.19v-.33a2.94,2.94,0,0,1-1.59-.43c-.44-.28-.66-.57-.66-.86ZM8,8a.78.78,0,0,0,.26.65,2.85,2.85,0,0,0,.79.41v-2C8.36,7.21,8,7.52,8,8Zm1.55,4.75a1,1,0,0,0,1-1.07,1.09,1.09,0,0,0-.25-.75,2,2,0,0,0-.71-.46Z"/></svg>