<svg xmlns="http://www.w3.org/2000/svg" viewBox="0 0 38 38">
	<path
		d="M39.35,6.25a10.54,10.54,0,0,0-3,.49c.07-1.32.07-2.13.07-2.17V4H13.55v.57s0,.84.07,2.17a10.48,10.48,0,0,0-3-.49C7.69,6.25,6,8,6,11.25a15.54,15.54,0,0,0,2.15,8.4,13.55,13.55,0,0,0,4.57,4.54,10.59,10.59,0,0,0,5.49,1.51,9.61,9.61,0,0,0,1-.05h.06a8.75,8.75,0,0,0,2.14,1.71,2.19,2.19,0,0,1,1.08,1.48,1.86,1.86,0,0,0,.05,3.57v2.36H19.45v2.48h-3V42H33.56V37.24h-3V34.76H27.5V32.4a1.86,1.86,0,0,0,.05-3.57,2.19,2.19,0,0,1,1.08-1.48,8.94,8.94,0,0,0,2.14-1.71,8,8,0,0,0,1,.06,10.69,10.69,0,0,0,5.49-1.51,13.55,13.55,0,0,0,4.57-4.54A15.54,15.54,0,0,0,44,11.25C44,8,42.31,6.25,39.35,6.25Zm-4-1.12c0,.21,0,.47,0,.77H14.71c0-.3,0-.56,0-.77Zm.76,5.18a9.1,9.1,0,0,1,2.65-.51,2,2,0,0,1,1.59.54,2.59,2.59,0,0,1,.34,2.06c-.54,4-2.26,7.07-4.85,8.73a6,6,0,0,1-2.68.9A38.47,38.47,0,0,0,36.08,10.31ZM14.5,14.24a31.9,31.9,0,0,0,2.28,7.6l.09.19a6,6,0,0,1-2.68-.9c-2.59-1.66-4.31-4.76-4.85-8.73a2.59,2.59,0,0,1,.34-2.06,2,2,0,0,1,1.59-.54,9.1,9.1,0,0,1,2.65.51C14.06,11.53,14.24,12.87,14.5,14.24Zm3.71,10.33a9.6,9.6,0,0,1-4.91-1.34c-1.89-1.14-6.26-4.57-6.17-12,0-2.61,1.18-3.88,3.52-3.88a10.12,10.12,0,0,1,3,.57l.09,1.14a9.43,9.43,0,0,0-2.52-.42,3.07,3.07,0,0,0-2.44.93,3.6,3.6,0,0,0-.61,3,15.72,15.72,0,0,0,1.89,5.81,10.64,10.64,0,0,0,3.47,3.72,7.44,7.44,0,0,0,3.89,1.12v0l.18.3.05.09c.06.09.12.18.17.27A.86.86,0,0,0,18,24l.12.18a1.63,1.63,0,0,0,.11.17l.11.16.06.08ZM32.44,38.36v2.51H17.56V38.36H32.44ZM27.5,35.89h1.92v1.35H20.58V35.89H27.5Zm-3.87-1.13v-2.3h2.74v2.3Zm4.1-4.15a.73.73,0,0,1-.73.73H23a.73.73,0,0,1,0-1.46h4A.73.73,0,0,1,27.73,30.61Zm2.82-6.46,0,0-.17.21,0,.05-.18.22h0a7.74,7.74,0,0,1-2,1.69,3.32,3.32,0,0,0-1.67,2.39H23.58a3.32,3.32,0,0,0-1.67-2.39A7.66,7.66,0,0,1,20,24.83l-.14-.16a12.5,12.5,0,0,1-1.57-2.3l-.15-.28C15.73,17.41,15,10.63,14.77,7H35.23l0,.48v0c0,.18,0,.36,0,.55h0c0,.58-.1,1.16-.16,1.74l0,.34c-.41,3.68-1.27,8.36-3.1,11.89l-.16.3A12.7,12.7,0,0,1,30.55,24.15Zm6.15-.92a9.6,9.6,0,0,1-4.91,1.34h-.14l.22-.3,0,0c.06-.09.12-.18.17-.27l0-.07.19-.31,0-.05.15-.26,0-.06a7.44,7.44,0,0,0,3.89-1.12,10.64,10.64,0,0,0,3.47-3.72,15.72,15.72,0,0,0,1.89-5.81,3.6,3.6,0,0,0-.61-3,3.07,3.07,0,0,0-2.44-.93,9.11,9.11,0,0,0-2.52.42q0-.59.09-1.11V8a10.12,10.12,0,0,1,3.05-.57c2.34,0,3.49,1.27,3.52,3.88C43,18.66,38.59,22.09,36.7,23.23Z"
		transform="translate(-6 -4)" />
	<path d="M19.33,22.9a11,11,0,0,0,1,1.32l.83-.77a8.45,8.45,0,0,1-.91-1.17Z" transform="translate(-6 -4)" />
	<path d="M17.85,16l-1.1.25a22.52,22.52,0,0,0,2.15,5.92l1-.56A21,21,0,0,1,17.85,16Z" transform="translate(-6 -4)" />
	<polygon
		points="32.93 23.62 31.97 23.62 31.97 22.67 30.84 22.67 30.84 23.62 29.89 23.62 29.89 24.75 30.85 24.75 30.85 25.7 31.98 25.7 31.98 24.75 32.93 24.75 32.93 23.62" />
	<polygon
		points="8.37 29.48 7.57 29.48 7.57 28.68 6.44 28.68 6.44 29.48 5.64 29.48 5.64 30.61 6.44 30.61 6.44 31.41 7.57 31.41 7.57 30.61 8.37 30.61 8.37 29.48" />
	<rect x="3.63" y="21.38" width="1.06" height="1.13" />
	<rect x="10.47" y="24.72" width="1.06" height="1.13" />
	<rect x="27.63" y="28.12" width="1.06" height="1.13" />
</svg>
