<svg xmlns="http://www.w3.org/2000/svg" viewBox="0 0 18.92 17.3">
	<path
		d="M19.06.75a1.31,1.31,0,0,0-.95-.4H1.89a1.31,1.31,0,0,0-.95.4,1.31,1.31,0,0,0-.4,1V2.78h.54V1.7A.82.82,0,0,1,1.89.89H18.11a.82.82,0,0,1,.81.81V12.24H1.08V3.87H.54v9.72a1.33,1.33,0,0,0,.4,1,1.35,1.35,0,0,0,1,.4H7.57V16c-.47,0-1.89,0-1.89,1.35a.26.26,0,0,0,.07.19.3.3,0,0,0,.2.08h8.1a.3.3,0,0,0,.2-.08.26.26,0,0,0,.07-.19C14.32,16,12.9,16,12.43,16h0V15h5.68a1.35,1.35,0,0,0,.95-.4,1.33,1.33,0,0,0,.4-1V1.7A1.31,1.31,0,0,0,19.06.75ZM13.75,17.11H6.25c.09-.33.42-.54,1.32-.54h4.86C13.33,16.57,13.66,16.78,13.75,17.11ZM8.11,16V15h3.78V16Zm10.57-1.86a.82.82,0,0,1-.57.24H1.89a.82.82,0,0,1-.81-.82v-.81H18.92v.81A.83.83,0,0,1,18.68,14.17Z"
		transform="translate(-0.54 -0.35)" />
	<rect x="8.38" y="12.97" width="2.16" height="0.54" />
</svg>
