<svg id="Layer_1" data-name="Layer 1" xmlns="http://www.w3.org/2000/svg" viewBox="0 0 22 21.08"><defs><style>.cls-1,.cls-2{fill:#fff;}.cls-2{opacity:0.7;}</style></defs><path class="cls-1" d="M23,8.94a2.06,2.06,0,0,1-.59,1.44A2.31,2.31,0,0,1,23,12.13a2.36,2.36,0,0,1-2.39,2.08H14.9a13.17,13.17,0,0,1,.73,3.66c0,2-1.69,3.67-2.75,3.67A2.9,2.9,0,0,1,11.22,21a.45.45,0,0,1-.17-.36v-3.1L8.41,11.8l-.11-.06v.18a.46.46,0,0,1-.46.45H3.25A2.29,2.29,0,0,1,1,10.08V2.75A2.3,2.3,0,0,1,3.25.46H6A2.29,2.29,0,0,1,8.16,2a6,6,0,0,1,2.43-.6H19A2.12,2.12,0,0,1,21.08,3a2.1,2.1,0,0,1-.17,1.38,2.06,2.06,0,0,1,1.14,1.84,2,2,0,0,1-.22.91A2,2,0,0,1,23,8.94ZM21,7.81a.47.47,0,0,1-.38-.32A.44.44,0,0,1,20.77,7a1.15,1.15,0,0,0,.36-.83,1.14,1.14,0,0,0-1-1.13.5.5,0,0,1-.38-.32.44.44,0,0,1,.12-.47,1.15,1.15,0,0,0,.33-1.1A1.18,1.18,0,0,0,19,2.29H10.59a4.39,4.39,0,0,0-2.43.78.46.46,0,0,1-.5.1.46.46,0,0,1-.28-.42A1.38,1.38,0,0,0,6,1.37H3.25A1.38,1.38,0,0,0,1.88,2.75v7.33a1.38,1.38,0,0,0,1.37,1.38H7.38V11a.44.44,0,0,1,.22-.39.46.46,0,0,1,.44,0l.92.46a.41.41,0,0,1,.21.22l2.75,5.95a.45.45,0,0,1,0,.2v3a2,2,0,0,0,.92.24,3,3,0,0,0,1.83-2.75,14.78,14.78,0,0,0-.88-4,.42.42,0,0,1,.05-.42.45.45,0,0,1,.37-.2h6.31A1.44,1.44,0,0,0,22,12.05a1.36,1.36,0,0,0-.65-1.3.46.46,0,0,1-.22-.41.46.46,0,0,1,.25-.39A1.13,1.13,0,0,0,21,7.81Z" transform="translate(-0.96 -0.46)"/><path class="cls-1" d="M7.84,11.46A.46.46,0,0,1,7.38,11V2.75a.46.46,0,0,1,.46-.46.47.47,0,0,1,.46.46V11A.47.47,0,0,1,7.84,11.46Z" transform="translate(-0.96 -0.46)"/><path class="cls-2" d="M3.25,12.38A2.3,2.3,0,0,1,1,10.08V2.75A2.3,2.3,0,0,1,3.25.46H6A2.27,2.27,0,0,1,7.38.92V12.38Z" transform="translate(-0.96 -0.46)"/><path class="cls-2" d="M23,8.94a2,2,0,0,1-.59,1.44A2.31,2.31,0,0,1,23,12.13a2.36,2.36,0,0,1-2.39,2.08H14.9a13.17,13.17,0,0,1,.73,3.66c0,2-1.69,3.67-2.75,3.67A2.9,2.9,0,0,1,11.22,21a.45.45,0,0,1-.17-.36v-3.1L8.41,11.8l-.11-.06V1.92a5.86,5.86,0,0,1,2.29-.55H19A2.12,2.12,0,0,1,21.08,3a2,2,0,0,1-.17,1.37,2.06,2.06,0,0,1,1.14,1.84,2,2,0,0,1-.22.91A2,2,0,0,1,23,8.94Z" transform="translate(-0.96 -0.46)"/></svg>