<svg id="Layer_1" data-name="Layer 1" xmlns="http://www.w3.org/2000/svg" viewBox="0 0 22 21.08">
	<path
		d="M21.88,10.38a2,2,0,0,0,.6-1.44A2.06,2.06,0,0,0,21.34,7.1a1.91,1.91,0,0,0,.22-.91,2.07,2.07,0,0,0-1.13-1.84A2,2,0,0,0,20.59,3a2.1,2.1,0,0,0-2.07-1.6H10.1A6,6,0,0,0,7.67,2,2.28,2.28,0,0,0,5.52.46H2.77A2.29,2.29,0,0,0,.48,2.75v7.33a2.29,2.29,0,0,0,2.29,2.3H7.35a.47.47,0,0,0,.46-.46v-.18l.11.06,2.64,5.72v3.11a.44.44,0,0,0,.17.35,2.82,2.82,0,0,0,1.66.56c1.06,0,2.75-1.68,2.75-3.66a13.17,13.17,0,0,0-.73-3.67h5.67a2.37,2.37,0,0,0,2.39-2.08A2.28,2.28,0,0,0,21.88,10.38Zm-1,.37a1.36,1.36,0,0,1,.65,1.3,1.44,1.44,0,0,1-1.47,1.24H13.77a.48.48,0,0,0-.38.2.48.48,0,0,0-.05.42,14.25,14.25,0,0,1,.89,4,3,3,0,0,1-1.84,2.75,2,2,0,0,1-.91-.25v-3a.46.46,0,0,0-.05-.2L8.68,11.27a.41.41,0,0,0-.21-.22l-.91-.46a.48.48,0,0,0-.45,0,.47.47,0,0,0-.22.39v.46H2.77a1.38,1.38,0,0,1-1.38-1.38V2.75A1.37,1.37,0,0,1,2.77,1.38H5.52A1.37,1.37,0,0,1,6.89,2.75a.44.44,0,0,0,.29.42.46.46,0,0,0,.5-.09,4.29,4.29,0,0,1,2.42-.79h8.42a1.19,1.19,0,0,1,1.18.89,1.12,1.12,0,0,1-.34,1.09.47.47,0,0,0-.12.48.47.47,0,0,0,.39.31,1.13,1.13,0,0,1,1,1.13,1.15,1.15,0,0,1-.36.83.45.45,0,0,0-.12.48.47.47,0,0,0,.38.31A1.13,1.13,0,0,1,20.93,10a.46.46,0,0,0,0,.8Z"
		transform="translate(-0.48 -0.46)" />
	<path d="M7.35,2.29a.47.47,0,0,0-.46.46V11a.46.46,0,1,0,.92,0V2.75A.47.47,0,0,0,7.35,2.29Z"
		transform="translate(-0.48 -0.46)" />
</svg>
