<svg id="Layer_1" data-name="Layer 1" xmlns="http://www.w3.org/2000/svg" viewBox="0 0 22 21.08"><defs><style>.cls-1{fill:#fff;}</style></defs><path class="cls-1" d="M3.25.92A2.3,2.3,0,0,0,1,3.21v7.33a2.29,2.29,0,0,0,2.29,2.29H7.38V1.38A2.27,2.27,0,0,0,6,.92Z" transform="translate(-0.96 -0.92)"/><path class="cls-1" d="M23,9.4a2,2,0,0,0-1.13-1.84,2,2,0,0,0,.22-.91,2.06,2.06,0,0,0-1.14-1.84,2,2,0,0,0,.17-1.38A2.12,2.12,0,0,0,19,1.83H10.59a5.86,5.86,0,0,0-2.29.55V12.2l.11.06L11.05,18v3.11a.46.46,0,0,0,.17.36,2.9,2.9,0,0,0,1.66.56c1.06,0,2.75-1.68,2.75-3.67a13.17,13.17,0,0,0-.73-3.66h5.66A2.36,2.36,0,0,0,23,12.59a2.29,2.29,0,0,0-.58-1.75A2,2,0,0,0,23,9.4Z" transform="translate(-0.96 -0.92)"/></svg>