<svg xmlns="http://www.w3.org/2000/svg" viewBox="0 0 4.85 8.86">
	<path
		d="M.82,7.57A.69.69,0,0,1,1,7.16.43.43,0,0,1,1.32,7a.62.62,0,0,1,.34.18,3.25,3.25,0,0,0,.57.41,1.92,1.92,0,0,0,.85.25V5.26l-.5-.19-.46-.2a1.84,1.84,0,0,1-.45-.29,3.89,3.89,0,0,1-.33-.35,1.37,1.37,0,0,1-.25-.48A2.27,2.27,0,0,1,1,3.14a1.74,1.74,0,0,1,.59-1.42,2.7,2.7,0,0,1,1.47-.59V.82A.23.23,0,0,1,3.17.64.32.32,0,0,1,3.39.57a.36.36,0,0,1,.22.07.21.21,0,0,1,.1.18v.29a4,4,0,0,1,1.22.22c.37.13.56.32.56.56a.73.73,0,0,1-.13.4A.4.4,0,0,1,5,2.51a2.09,2.09,0,0,1-.48-.19,2.26,2.26,0,0,0-.82-.21V4.3a6.7,6.7,0,0,1,.72.31A3.12,3.12,0,0,1,5,5a1.65,1.65,0,0,1,.48.65,2.45,2.45,0,0,1,.16.93,2.17,2.17,0,0,1-.52,1.53,2.33,2.33,0,0,1-1.44.71v.36a.21.21,0,0,1-.1.17.36.36,0,0,1-.22.07.32.32,0,0,1-.22-.07.22.22,0,0,1-.09-.17V8.86a3,3,0,0,1-1.6-.43C1,8.15.82,7.86.82,7.57ZM2.09,3a.81.81,0,0,0,.26.65,3,3,0,0,0,.79.41v-2C2.44,2.21,2.09,2.52,2.09,3ZM3.65,7.78A1,1,0,0,0,4.6,6.71,1,1,0,0,0,4.35,6a2,2,0,0,0-.7-.46Z"
		transform="translate(-0.82 -0.57)" />
</svg>
