<svg xmlns="http://www.w3.org/2000/svg" viewBox="0 0 4.5 24">
	<path
		d="M.65,13.57.19,6C.09,4.46-.39,2,.69.75,1.5-.2,3.44-.37,4,1A10.29,10.29,0,0,1,4.35,5.8l-.63,7.81a6.69,6.69,0,0,1-.44,2.13,1.32,1.32,0,0,1-.45.54,1.15,1.15,0,0,1-.64.2,1.17,1.17,0,0,1-.65-.19,1.3,1.3,0,0,1-.46-.52A7.74,7.74,0,0,1,.65,13.57ZM2.27,24a2.1,2.1,0,0,1-1.49-.65,2.44,2.44,0,0,1-.67-1.58,2.53,2.53,0,0,1,.5-1.65A2.16,2.16,0,0,1,2,19.28a2.17,2.17,0,0,1,.88.08,2.21,2.21,0,0,1,.78.46,2.28,2.28,0,0,1,.55.75,2.65,2.65,0,0,1,.23.93,2.8,2.8,0,0,1-.13.95,2.27,2.27,0,0,1-.47.81,2.13,2.13,0,0,1-.72.55A2,2,0,0,1,2.27,24Z"
		transform="translate(0 0)" />
</svg>
