<svg xmlns="http://www.w3.org/2000/svg" viewBox="0 0 16.56 10.95">
	<path
		d="M8.28,3.18A2.32,2.32,0,1,0,10.56,5.5,2.3,2.3,0,0,0,8.28,3.18Zm0,3.64A1.32,1.32,0,1,1,9.56,5.5,1.3,1.3,0,0,1,8.28,6.82Z"
		transform="translate(0)" />
	<path
		d="M16.29,4.66c-1.08-1.4-4-4.66-8-4.66S1.35,3.26.25,4.68a1.37,1.37,0,0,0,0,1.6C1.35,7.68,4.32,11,8.28,11s6.94-3.27,8-4.69A1.38,1.38,0,0,0,16.29,4.66Zm-.79,1C14.51,7,11.83,10,8.28,10S2.05,7,1.07,5.68a.37.37,0,0,1,0-.4C2.05,4,4.74,1,8.28,1s6.23,3,7.21,4.26A.36.36,0,0,1,15.5,5.67Z"
		transform="translate(0)" />
</svg>
