<svg xmlns="http://www.w3.org/2000/svg" viewBox="0 0 13.74 11.88">
	<path
		d="M7.5,3.38A3.12,3.12,0,0,1,10.62,6.5a3,3,0,0,1-.22,1.14l1.83,1.83a7.49,7.49,0,0,0,2.14-3A7.4,7.4,0,0,0,7.49,1.81,7.27,7.27,0,0,0,5,2.25L6.36,3.6A3,3,0,0,1,7.5,3.38ZM1.25,1.67,2.67,3.09,3,3.38A7.39,7.39,0,0,0,.62,6.5,7.42,7.42,0,0,0,7.5,11.19a7.35,7.35,0,0,0,2.74-.53l.26.27,1.83,1.82.79-.79L2,.88ZM4.71,5.12l1,1a1.4,1.4,0,0,0-.06.41A1.88,1.88,0,0,0,7.5,8.38a1.4,1.4,0,0,0,.41-.06l1,1a3.08,3.08,0,0,1-1.38.33A3.12,3.12,0,0,1,4.38,6.5,3.08,3.08,0,0,1,4.71,5.12ZM7.4,4.64l2,2v-.1A1.88,1.88,0,0,0,7.51,4.63Z"
		transform="translate(-0.63 -0.88)" />
</svg>
