<svg id="Layer_1" data-name="Layer 1" xmlns="http://www.w3.org/2000/svg" viewBox="0 0 22 21.05"><defs><style>.cls-1,.cls-2{fill:#fff;}.cls-2{opacity:0.7;}</style></defs><path class="cls-1" d="M22.06,8.67a1.61,1.61,0,0,0-1.39-1L15,6.86,12.48,1.74a1.59,1.59,0,0,0-1.36-1,1.59,1.59,0,0,0-1.37,1L7.22,6.86l-5.66.82a1.61,1.61,0,0,0-1.39,1,1.58,1.58,0,0,0,.55,1.61l4.09,4-1,5.63a1.68,1.68,0,0,0,.29,1.43,1.26,1.26,0,0,0,1,.44,2.09,2.09,0,0,0,.94-.26l5.06-2.66,5.05,2.66a2.09,2.09,0,0,0,.94.26h0a1.26,1.26,0,0,0,1-.44,1.64,1.64,0,0,0,.29-1.43l-1-5.63,4.09-4A1.58,1.58,0,0,0,22.06,8.67Zm-1.45.69-4.34,4.22a.64.64,0,0,0-.18.57l1,6a.67.67,0,0,1,0,.36.8.8,0,0,1-.34-.11l-5.35-2.82a.66.66,0,0,0-.3-.07.6.6,0,0,0-.3.07L5.46,20.37a.77.77,0,0,1-.34.11.67.67,0,0,1,0-.36l1-6A.64.64,0,0,0,6,13.58L1.62,9.36a.89.89,0,0,1-.21-.29A.85.85,0,0,1,1.75,9l6-.87a.66.66,0,0,0,.49-.35l2.68-5.43A.63.63,0,0,1,11.12,2a.73.73,0,0,1,.2.29L14,7.74a.66.66,0,0,0,.49.35l6,.87a.85.85,0,0,1,.34.11A.89.89,0,0,1,20.61,9.36Z" transform="translate(-0.12 -0.72)"/><path class="cls-2" d="M20.9,9.56l-4.38,4.49,1,6.33a.77.77,0,0,1-.28.72.73.73,0,0,1-.42.14.8.8,0,0,1-.33-.08l-5.41-3-5.42,3A.67.67,0,0,1,5,21.1a.74.74,0,0,1-.28-.72l1-6.33L1.33,9.56a.76.76,0,0,1-.18-.75.71.71,0,0,1,.57-.51l6.06-.92,2.7-5.76a.73.73,0,0,1,1.27,0l2.71,5.76,6.05.92a.71.71,0,0,1,.57.51A.76.76,0,0,1,20.9,9.56Z" transform="translate(-0.12 -0.72)"/></svg>