<svg xmlns="http://www.w3.org/2000/svg" viewBox="0 0 22 21.05">
	<path
		d="M22.06,8.63a1.59,1.59,0,0,0-1.39-1L15,6.83,12.48,1.7a1.59,1.59,0,0,0-1.36-1,1.59,1.59,0,0,0-1.37,1L7.22,6.83l-5.66.82a1.59,1.59,0,0,0-1.39,1,1.59,1.59,0,0,0,.55,1.62l4.09,4-1,5.63a1.69,1.69,0,0,0,.29,1.43,1.25,1.25,0,0,0,1,.43,2.07,2.07,0,0,0,.94-.25l5.06-2.66,5.05,2.66a2.07,2.07,0,0,0,.94.25h0a1.25,1.25,0,0,0,1-.43,1.65,1.65,0,0,0,.29-1.43l-1-5.63,4.09-4A1.59,1.59,0,0,0,22.06,8.63Zm-1.45.69-4.34,4.23a.64.64,0,0,0-.18.57l1,6a.67.67,0,0,1,0,.36.91.91,0,0,1-.34-.12l-5.35-2.81a.67.67,0,0,0-.3-.08.61.61,0,0,0-.3.08L5.46,20.33a.86.86,0,0,1-.34.12.67.67,0,0,1,0-.36l1-6A.64.64,0,0,0,6,13.55L1.62,9.32A.89.89,0,0,1,1.41,9a.71.71,0,0,1,.34-.11l6-.87a.7.7,0,0,0,.49-.36l2.68-5.43A.7.7,0,0,1,11.12,2a.82.82,0,0,1,.2.29L14,7.7a.7.7,0,0,0,.49.36l6,.87a.71.71,0,0,1,.34.11A.89.89,0,0,1,20.61,9.32Z"
		transform="translate(-0.12 -0.69)" />
</svg>
