<svg xmlns="http://www.w3.org/2000/svg" viewBox="0 0 14 14">
	<path
		d="M5.05,13H1.8a.79.79,0,0,1-.8-.8V9a.47.47,0,0,0-.15-.35A.47.47,0,0,0,.5,8.46a.47.47,0,0,0-.35.15A.47.47,0,0,0,0,9v3.25a1.77,1.77,0,0,0,.53,1.27A1.79,1.79,0,0,0,1.8,14H5.05a.5.5,0,0,0,.35-.14.51.51,0,0,0,.15-.36.51.51,0,0,0-.5-.5Z"
		transform="translate(0 -0.01)" />
	<path
		d="M5.05,0H1.8A1.81,1.81,0,0,0,0,1.81V5.06a.51.51,0,0,0,.15.36.5.5,0,0,0,.35.14.5.5,0,0,0,.35-.14A.51.51,0,0,0,1,5.06V1.81a.79.79,0,0,1,.23-.56A.82.82,0,0,1,1.8,1H5.05A.5.5,0,0,0,5.4.87.51.51,0,0,0,5.55.51.47.47,0,0,0,5.4.16.47.47,0,0,0,5.05,0Z"
		transform="translate(0 -0.01)" />
	<path
		d="M13.47.54A1.79,1.79,0,0,0,12.2,0H9A.47.47,0,0,0,8.6.16a.47.47,0,0,0-.15.35A.51.51,0,0,0,8.6.87.5.5,0,0,0,9,1H12.2a.82.82,0,0,1,.57.24.79.79,0,0,1,.23.56V5.06a.51.51,0,0,0,.15.36.51.51,0,0,0,.7,0A.51.51,0,0,0,14,5.06V1.81A1.79,1.79,0,0,0,13.47.54Z"
		transform="translate(0 -0.01)" />
	<path
		d="M13.5,8.46A.51.51,0,0,0,13,9v3.25a.79.79,0,0,1-.8.8H9a.51.51,0,0,0-.5.5.51.51,0,0,0,.15.36A.5.5,0,0,0,9,14H12.2a1.81,1.81,0,0,0,1.8-1.8V9a.51.51,0,0,0-.5-.5Z"
		transform="translate(0 -0.01)" />
</svg>
