<svg xmlns="http://www.w3.org/2000/svg" viewBox="0 0 14 14">
	<path d="M11.35,7.56l.07-.5a3.77,3.77,0,0,0-1.34,0l.07.5A3,3,0,0,1,11.35,7.56Z" transform="translate(-0.5 -0.5)" />
	<path d="M8.17,8.78a3.32,3.32,0,0,1,1.5-1.09l-.07-.5A3.68,3.68,0,0,0,7.72,8.55Z" transform="translate(-0.5 -0.5)" />
	<path d="M8,13.34a3.77,3.77,0,0,0,1.08.78l.24-.44a3.34,3.34,0,0,1-1-.7Z" transform="translate(-0.5 -0.5)" />
	<path d="M7,10.24l.49.09A3,3,0,0,1,7.9,9.2L7.45,9A3.52,3.52,0,0,0,7,10.24Z" transform="translate(-0.5 -0.5)" />
	<path d="M14,10.83a3.35,3.35,0,0,1-.57,1.76l.35.37a3.74,3.74,0,0,0,.72-2.21h0Z" transform="translate(-0.5 -0.5)" />
	<path
		d="M7.93,3.52A3.74,3.74,0,0,0,2.81.79,3.74,3.74,0,0,0,.5,4.25,3.75,3.75,0,0,0,6.33,7.37,3.71,3.71,0,0,0,7.71,5.69,3.75,3.75,0,0,0,7.93,3.52ZM7.44,4.88a3.36,3.36,0,0,1-.89,1.67,3.36,3.36,0,0,1-1.67.89A3.23,3.23,0,0,1,3,7.25,3.16,3.16,0,0,1,1.55,6.06,3.25,3.25,0,0,1,6.06,1.55,3.16,3.16,0,0,1,7.25,3,3.23,3.23,0,0,1,7.44,4.88Z"
		transform="translate(-0.5 -0.5)" />
	<path d="M14,10.33l.49-.09A3.86,3.86,0,0,0,14.05,9l-.45.22A3.32,3.32,0,0,1,14,10.33Z"
		transform="translate(-0.5 -0.5)" />
	<path
		d="M6.19,2.31a2.72,2.72,0,0,0-1.4-.76,2.78,2.78,0,0,0-1.59.16A2.84,2.84,0,0,0,2,2.72,2.78,2.78,0,0,0,1.5,4.25,2.77,2.77,0,0,0,4.25,7a2.78,2.78,0,0,0,1.53-.46,2.84,2.84,0,0,0,1-1.24A2.78,2.78,0,0,0,7,3.71,2.72,2.72,0,0,0,6.19,2.31ZM5.08,5.56A1,1,0,0,1,4.5,6v.29a.24.24,0,0,1-.25.25A.24.24,0,0,1,4,6.25V6a1,1,0,0,1-.35-.17,1.1,1.1,0,0,1-.27-.3.31.31,0,0,1,0-.19.24.24,0,0,1,.12-.14.21.21,0,0,1,.19,0,.23.23,0,0,1,.15.11A.39.39,0,0,0,4,5.43a.48.48,0,0,0,.5,0,.39.39,0,0,0,.18-.18.48.48,0,0,0,0-.5.39.39,0,0,0-.18-.18.45.45,0,0,0-.25-.07,1,1,0,0,1-1-.87,1,1,0,0,1,.16-.69A1,1,0,0,1,4,2.54V2.25a.29.29,0,0,1,.07-.18.27.27,0,0,1,.36,0,.29.29,0,0,1,.07.18v.28a1,1,0,0,1,.35.17,1.1,1.1,0,0,1,.27.3.31.31,0,0,1,0,.19A.24.24,0,0,1,5,3.33a.21.21,0,0,1-.19,0,.23.23,0,0,1-.15-.11.39.39,0,0,0-.18-.18.48.48,0,0,0-.5,0,.39.39,0,0,0-.18.18.48.48,0,0,0,0,.5A.39.39,0,0,0,4,3.93.45.45,0,0,0,4.25,4a1,1,0,0,1,1,.87A1,1,0,0,1,5.08,5.56Z"
		transform="translate(-0.5 -0.5)" />
	<path d="M11.9,7.18l-.07.51a3.37,3.37,0,0,1,1.5,1.08l.45-.22A3.76,3.76,0,0,0,11.9,7.18Z"
		transform="translate(-0.5 -0.5)" />
	<path d="M7.5,10.83,7,10.75H7A3.74,3.74,0,0,0,7.72,13l.36-.37A3.27,3.27,0,0,1,7.5,10.83Z"
		transform="translate(-0.5 -0.5)" />
	<path
		d="M9.76,11.18a.51.51,0,0,0,.36.06h.06a.28.28,0,0,1,.13,0,.34.34,0,0,1,.19.23.25.25,0,0,1,0,.17l-.17.59h.84L11,11.66a.29.29,0,0,1,0-.16.35.35,0,0,1,.07-.15.31.31,0,0,1,.14-.09.35.35,0,0,1,.17,0,.53.53,0,0,0,.25,0,.58.58,0,0,0,.37-.54.62.62,0,0,0-.16-.41l-.9-.95a.47.47,0,0,0-.09-.06l-.11,0-.1,0a.2.2,0,0,0-.09.06l-.86.9a.68.68,0,0,0-.18.32.73.73,0,0,0,0,.36A.51.51,0,0,0,9.76,11.18Z"
		transform="translate(-0.5 -0.5)" />
	<path d="M9.83,13.86l-.24.45a3.68,3.68,0,0,0,2.32,0h0l-.23-.45A3.24,3.24,0,0,1,9.83,13.86Z"
		transform="translate(-0.5 -0.5)" />
	<path
		d="M8.21,9.7a2.78,2.78,0,0,0-.16,1.59,2.8,2.8,0,0,0,2.16,2.16,2.78,2.78,0,0,0,1.59-.16,2.84,2.84,0,0,0,1.24-1,2.78,2.78,0,0,0,.46-1.53A2.77,2.77,0,0,0,10.75,8a2.78,2.78,0,0,0-1.53.46A2.84,2.84,0,0,0,8.21,9.7Zm2-.71a.64.64,0,0,1,.25-.18.8.8,0,0,1,.3-.06.81.81,0,0,1,.31.06A.72.72,0,0,1,11.3,9l.9.95a1.09,1.09,0,0,1,.3.75,1.11,1.11,0,0,1-.3.75,1,1,0,0,1-.65.31l.1.36a.6.6,0,0,1,0,.23.5.5,0,0,1-.09.21.65.65,0,0,1-.18.15.59.59,0,0,1-.22.05h-.84a.59.59,0,0,1-.22-.05.65.65,0,0,1-.18-.15.5.5,0,0,1-.09-.21.6.6,0,0,1,0-.23l.11-.36a1,1,0,0,1-.55-.2,1.07,1.07,0,0,1-.35-.46,1.26,1.26,0,0,1,0-.64,1.16,1.16,0,0,1,.31-.56Z"
		transform="translate(-0.5 -0.5)" />
	<path d="M12.14,13.68l.24.44a3.77,3.77,0,0,0,1.08-.78L13.11,13A3.21,3.21,0,0,1,12.14,13.68Z"
		transform="translate(-0.5 -0.5)" />
	<path
		d="M5.62,13.43l-.21,0a2.71,2.71,0,0,1-2.16-2.64V10.5h.23a.28.28,0,0,0,.15,0,.38.38,0,0,0,.1-.12.29.29,0,0,0,0-.16A.27.27,0,0,0,3.67,10l-1-1a.27.27,0,0,0-.38,0l-1,1a.27.27,0,0,0-.07.14.22.22,0,0,0,0,.16.38.38,0,0,0,.1.12.28.28,0,0,0,.15,0h.23v.25a3,3,0,0,0,3,3h.84a.21.21,0,0,0,.11,0,.22.22,0,0,0,0-.11.2.2,0,0,0,0-.11A.15.15,0,0,0,5.62,13.43Z"
		transform="translate(-0.5 -0.5)" />
	<path
		d="M9.38,1.57l.21,0a2.71,2.71,0,0,1,2.16,2.64V4.5h-.23a.28.28,0,0,0-.15,0,.29.29,0,0,0-.1.12.22.22,0,0,0,0,.16.27.27,0,0,0,.07.14l1,1a.27.27,0,0,0,.38,0l1-1a.27.27,0,0,0,.07-.14.25.25,0,0,0-.11-.28.28.28,0,0,0-.15,0h-.23V4.25a3,3,0,0,0-3-3H9.41a.21.21,0,0,0-.11,0,.16.16,0,0,0-.05.11.2.2,0,0,0,0,.11A.21.21,0,0,0,9.38,1.57Z"
		transform="translate(-0.5 -0.5)" />
</svg>
