<svg xmlns="http://www.w3.org/2000/svg" viewBox="0 0 22.01 20">
	<path
		d="M19.19,0H2.81A3.07,3.07,0,0,0,0,3.27v9.89a3.07,3.07,0,0,0,2.81,3.27H8.73L8,18.22H5.88a.91.91,0,0,0-.76.76.9.9,0,0,0,.76,1H16.12a.91.91,0,0,0,.76-.76.9.9,0,0,0-.76-1H14l-.76-1.79h5.92A3.07,3.07,0,0,0,22,13.16V3.27A3.07,3.07,0,0,0,19.19,0ZM9.5,1.79h3V14.65h-3Zm-1,12.86h-3V1.79h3Zm5-12.86h3V14.65h-3ZM1.5,13.17h0V3.27A1.39,1.39,0,0,1,2.79,1.79H4.5V14.65H2.81A1.4,1.4,0,0,1,1.5,13.17Zm19-9.9v9.89a1.4,1.4,0,0,1-1.3,1.49H17.5V1.79h1.69A1.39,1.39,0,0,1,20.5,3.25Z"
		transform="translate(0.01)"
	/>
</svg>
