<svg xmlns="http://www.w3.org/2000/svg" viewBox="0 0 14 14">
	<path
		d="M6.15,2.11v3.5A.49.49,0,0,1,6,6a.5.5,0,0,1-.35.14H2.15a2,2,0,0,1-2-2V.61A.47.47,0,0,1,.3.26.51.51,0,0,1,.65.11h3.5A2,2,0,0,1,5.56.7,2,2,0,0,1,6.15,2.11Zm7.5-2h-3.5A2,2,0,0,0,8.74.7a2,2,0,0,0-.59,1.41v3.5A.49.49,0,0,0,8.3,6a.5.5,0,0,0,.35.14h3.5a2,2,0,0,0,2-2V.61A.47.47,0,0,0,14,.26a.51.51,0,0,0-.35-.15Zm-1.5,8H8.65a.51.51,0,0,0-.35.15.47.47,0,0,0-.15.35v3.5a2,2,0,0,0,2,2h3.5A.5.5,0,0,0,14,14a.49.49,0,0,0,.15-.36v-3.5a2,2,0,0,0-2-2Zm-6.5,0H2.15A2,2,0,0,0,.74,8.7a2,2,0,0,0-.59,1.41v3.5A.49.49,0,0,0,.3,14a.5.5,0,0,0,.35.14h3.5a2,2,0,0,0,2-2V8.61A.47.47,0,0,0,6,8.26.51.51,0,0,0,5.65,8.11Z"
		transform="translate(-0.15 -0.11)"
	/>
</svg>
