<svg xmlns="http://www.w3.org/2000/svg" viewBox="0 0 14 14">
	<path
		d="M14.88,4.8a5.13,5.13,0,0,0-.32-1.7,3.45,3.45,0,0,0-.81-1.24,3.45,3.45,0,0,0-1.24-.81,5.08,5.08,0,0,0-1.7-.32c-.74,0-1,0-2.88,0S5.79.69,5,.73a5.13,5.13,0,0,0-1.7.32,3.45,3.45,0,0,0-1.24.81A3.45,3.45,0,0,0,1.29,3.1,5.13,5.13,0,0,0,1,4.8c0,.75,0,1,0,2.89s0,2.13,0,2.88a5.08,5.08,0,0,0,.32,1.7,3.45,3.45,0,0,0,.81,1.24,3.45,3.45,0,0,0,1.24.81,5.13,5.13,0,0,0,1.7.32c.75,0,1,0,2.89,0s2.14,0,2.88,0a5.08,5.08,0,0,0,1.7-.32,3.61,3.61,0,0,0,2.05-2.05,5.08,5.08,0,0,0,.32-1.7c0-.75,0-1,0-2.88S14.92,5.55,14.88,4.8Zm-1.26,5.71a3.67,3.67,0,0,1-.24,1.3,2.26,2.26,0,0,1-1.33,1.33,3.67,3.67,0,0,1-1.3.24c-.73,0-1,0-2.82,0s-2.09,0-2.83,0a3.67,3.67,0,0,1-1.3-.24A2.17,2.17,0,0,1,3,12.62a2.3,2.3,0,0,1-.52-.81,3.67,3.67,0,0,1-.24-1.3c0-.73,0-1,0-2.82s0-2.09,0-2.83a3.67,3.67,0,0,1,.24-1.3A2.26,2.26,0,0,1,3.8,2.23,3.67,3.67,0,0,1,5.1,2c.74,0,1,0,2.83,0S10,2,10.75,2a3.67,3.67,0,0,1,1.3.24,2.3,2.3,0,0,1,.81.52,2.17,2.17,0,0,1,.52.81,3.67,3.67,0,0,1,.24,1.3c0,.74,0,1,0,2.83S13.66,9.78,13.62,10.51Z"
		transform="translate(-0.93 -0.69)"
	/>
	<path
		d="M7.93,4.09a3.6,3.6,0,1,0,3.6,3.6A3.6,3.6,0,0,0,7.93,4.09Zm0,5.93a2.34,2.34,0,1,1,2.34-2.33A2.33,2.33,0,0,1,7.93,10Z"
		transform="translate(-0.93 -0.69)"
	/>
	<path
		d="M11.66,3.11A.84.84,0,1,0,12.5,4,.85.85,0,0,0,11.66,3.11Z"
		transform="translate(-0.93 -0.69)"
	/>
</svg>
