<svg xmlns="http://www.w3.org/2000/svg" viewBox="0 0 22 21.08">
	<path
		d="M22.48,12.75a2,2,0,0,0-.59-1.44,2.27,2.27,0,0,0,.58-1.75,2.36,2.36,0,0,0-2.39-2.08H14.42a13.17,13.17,0,0,0,.73-3.67c0-2-1.69-3.67-2.75-3.67A2.9,2.9,0,0,0,10.74.7a.46.46,0,0,0-.17.36V4.17L7.93,9.89l-.11,0V9.77a.47.47,0,0,0-.46-.46H2.78A2.3,2.3,0,0,0,.48,11.6v7.34a2.3,2.3,0,0,0,2.3,2.29H5.53a2.28,2.28,0,0,0,2.15-1.52,6,6,0,0,0,2.43.6h8.41a2.07,2.07,0,0,0,1.92-3,2,2,0,0,0,.91-2.75A2,2,0,0,0,22.48,12.75Zm-1.93,1.13a.44.44,0,0,0-.38.31.45.45,0,0,0,.12.48,1.14,1.14,0,0,1-.65,2,.47.47,0,0,0-.39.31.47.47,0,0,0,.12.48,1.13,1.13,0,0,1,.34,1.09,1.2,1.2,0,0,1-1.19.88H10.11a4.34,4.34,0,0,1-2.43-.78.46.46,0,0,0-.78.33,1.38,1.38,0,0,1-1.37,1.37H2.78A1.38,1.38,0,0,1,1.4,18.94V11.6a1.37,1.37,0,0,1,1.38-1.37H6.9v.46a.47.47,0,0,0,.22.39.46.46,0,0,0,.44,0l.92-.46a.5.5,0,0,0,.21-.22l2.75-6a.41.41,0,0,0,0-.19v-3a1.94,1.94,0,0,1,.92-.25,3,3,0,0,1,1.83,2.75,14.27,14.27,0,0,1-.88,4,.44.44,0,0,0,.05.43.46.46,0,0,0,.38.19h6.3a1.44,1.44,0,0,1,1.48,1.25,1.37,1.37,0,0,1-.65,1.3.45.45,0,0,0-.22.41.47.47,0,0,0,.25.39,1.12,1.12,0,0,1,.63,1A1.14,1.14,0,0,1,20.55,13.88Z"
		transform="translate(-0.48 -0.14)"
	/>
	<path
		d="M7.36,10.23a.46.46,0,0,0-.46.45v8.25a.46.46,0,1,0,.92,0V10.68A.46.46,0,0,0,7.36,10.23Z"
		transform="translate(-0.48 -0.14)"
	/>
</svg>
