<svg xmlns="http://www.w3.org/2000/svg" viewBox="0 0 22 21.08">
	<path
		d="M2.29,10.08A2.3,2.3,0,0,0,0,12.38v7.33A2.3,2.3,0,0,0,2.29,22H5a2.29,2.29,0,0,0,1.38-.46V10.08Z"
		transform="translate(0 -0.92)"
	/>
	<path
		d="M22,13.52a2,2,0,0,0-.6-1.44A2.28,2.28,0,0,0,22,10.33,2.37,2.37,0,0,0,19.6,8.25H13.94a13.17,13.17,0,0,0,.73-3.67c0-2-1.69-3.66-2.75-3.66a2.75,2.75,0,0,0-1.66.56.45.45,0,0,0-.18.35V4.94L7.44,10.66l-.11.06v9.82a6.06,6.06,0,0,0,2.3.54H18a2.11,2.11,0,0,0,2.08-1.6A2.08,2.08,0,0,0,20,18.11a2,2,0,0,0,1.13-1.84,2,2,0,0,0-.21-.91A2.06,2.06,0,0,0,22,13.52Z"
		transform="translate(0 -0.92)"
	/>
</svg>
