<svg id="Layer_1" data-name="Layer 1" xmlns="http://www.w3.org/2000/svg" viewBox="0 0 22 21.08"><defs><style>.cls-1,.cls-2{fill:#fff;}.cls-2{fill-opacity:0.7;}</style></defs><path class="cls-1" d="M22,13.06a2,2,0,0,0-.6-1.44A2.28,2.28,0,0,0,22,9.87,2.38,2.38,0,0,0,19.6,7.79H13.94a13.17,13.17,0,0,0,.73-3.66c0-2-1.69-3.67-2.75-3.67A2.86,2.86,0,0,0,10.26,1a.45.45,0,0,0-.18.36v3.1L7.44,10.2l-.11.06v-.18a.45.45,0,0,0-.46-.45H2.29A2.29,2.29,0,0,0,0,11.92v7.33a2.3,2.3,0,0,0,2.29,2.29H5A2.3,2.3,0,0,0,7.2,20a6,6,0,0,0,2.42.6H18a2.05,2.05,0,0,0,1.91-3,2,2,0,0,0,1.13-1.84,2,2,0,0,0-.21-.91A2,2,0,0,0,22,13.06Zm-1.93,1.13a.49.49,0,0,0-.39.32.46.46,0,0,0,.12.47,1.12,1.12,0,0,1,.37.83,1.14,1.14,0,0,1-1,1.13.47.47,0,0,0-.38.31.45.45,0,0,0,.12.48,1.15,1.15,0,0,1,.33,1.1,1.18,1.18,0,0,1-1.18.88H9.62a4.36,4.36,0,0,1-2.42-.78.46.46,0,0,0-.5-.1.46.46,0,0,0-.28.42A1.38,1.38,0,0,1,5,20.63H2.29A1.37,1.37,0,0,1,.92,19.25V11.92a1.37,1.37,0,0,1,1.37-1.38H6.42V11a.46.46,0,0,0,.21.39.48.48,0,0,0,.45,0L8,11a.45.45,0,0,0,.21-.22L11,4.78a.45.45,0,0,0,0-.2v-3a2,2,0,0,1,.92-.24,3,3,0,0,1,1.83,2.75,14.25,14.25,0,0,1-.89,4,.48.48,0,0,0,.05.42.48.48,0,0,0,.38.2H19.6A1.46,1.46,0,0,1,21.08,10a1.37,1.37,0,0,1-.66,1.3.45.45,0,0,0-.21.41.44.44,0,0,0,.25.39,1.15,1.15,0,0,1,.62,1A1.13,1.13,0,0,1,20.07,14.19Z" transform="translate(0 -0.46)"/><path class="cls-1" d="M6.87,10.54a.46.46,0,0,0-.45.46v8.25a.46.46,0,1,0,.91,0V11A.46.46,0,0,0,6.87,10.54Z" transform="translate(0 -0.46)"/><path class="cls-2" d="M2.29,9.62A2.3,2.3,0,0,0,0,11.92v7.33a2.3,2.3,0,0,0,2.29,2.29H5a2.29,2.29,0,0,0,1.38-.46V9.62Z" transform="translate(0 -0.46)"/><path class="cls-2" d="M22,13.06a2,2,0,0,0-.6-1.44A2.28,2.28,0,0,0,22,9.87,2.38,2.38,0,0,0,19.6,7.79H13.94a13.17,13.17,0,0,0,.73-3.66c0-2-1.69-3.67-2.75-3.67A2.82,2.82,0,0,0,10.26,1a.45.45,0,0,0-.18.36v3.1L7.44,10.2l-.11.06v9.82a5.9,5.9,0,0,0,2.3.55H18A2.12,2.12,0,0,0,20.12,19,2.08,2.08,0,0,0,20,17.65a2,2,0,0,0,1.13-1.84,2,2,0,0,0-.21-.91A2,2,0,0,0,22,13.06Z" transform="translate(0 -0.46)"/></svg>