<svg xmlns="http://www.w3.org/2000/svg" viewBox="0 0 15 12.24">
	<path
		d="M6.12,11.7a.32.32,0,0,1,0-.13s0-.06-.06-.08-.08,0-.08-.05,0,0-.11,0H2.76A1.48,1.48,0,0,1,1.67,11a1.47,1.47,0,0,1-.45-1.08V3.13a1.47,1.47,0,0,1,.45-1.08A1.48,1.48,0,0,1,2.76,1.6H5.82A.29.29,0,0,0,6,1.54a.31.31,0,0,0,.1-.19c0-.08,0-.16,0-.22s0-.15,0-.26,0-.16,0-.19A.29.29,0,0,0,6,.47.29.29,0,0,0,5.82.38H2.76a2.66,2.66,0,0,0-1.95.81A2.62,2.62,0,0,0,0,3.13V9.87a2.64,2.64,0,0,0,.81,1.94,2.66,2.66,0,0,0,1.95.81H5.82A.29.29,0,0,0,6,12.56a.31.31,0,0,0,.1-.19c0-.08,0-.16,0-.22s0-.15,0-.26S6.12,11.73,6.12,11.7Z"
		transform="translate(0 -0.38)"
	/>
	<path
		d="M14.82,6.07,9.61.87A.56.56,0,0,0,9.18.68a.57.57,0,0,0-.43.19.58.58,0,0,0-.18.43V4.05H4.29a.58.58,0,0,0-.43.18.57.57,0,0,0-.19.43V8.34a.57.57,0,0,0,.19.43A.58.58,0,0,0,4.29,9H8.57V11.7a.58.58,0,0,0,.18.43.57.57,0,0,0,.43.19.56.56,0,0,0,.43-.19l5.21-5.2a.6.6,0,0,0,0-.86Z"
		transform="translate(0 -0.38)"
	/>
</svg>
