<svg xmlns="http://www.w3.org/2000/svg" viewBox="0 0 18 12.66">
	<path
		d="M12.17,7.5,10.66,9A1.68,1.68,0,0,1,8.35,9L6.84,7.5,1.42,12.94a1.66,1.66,0,0,0,.66.14H16.92a1.59,1.59,0,0,0,.66-.14Z"
		transform="translate(-0.5 -0.43)"
	/>
	<path
		d="M16.92.43H2.08a1.67,1.67,0,0,0-.66.15l5.79,5.8h0L9.09,8.27a.64.64,0,0,0,.82,0l1.88-1.88h0L17.58.58A1.6,1.6,0,0,0,16.92.43Z"
		transform="translate(-0.5 -0.43)"
	/>
	<path
		d="M.67,1.32A1.6,1.6,0,0,0,.5,2V11.5a1.61,1.61,0,0,0,.17.7L6.09,6.76Z"
		transform="translate(-0.5 -0.43)"
	/>
	<path
		d="M18.33,1.32,12.91,6.76l5.42,5.44a1.48,1.48,0,0,0,.17-.7V2A1.47,1.47,0,0,0,18.33,1.32Z"
		transform="translate(-0.5 -0.43)"
	/>
</svg>
