<svg xmlns="http://www.w3.org/2000/svg" viewBox="0 0 11.52 20">
	<path
		d="M10.3,0H1.7A1.47,1.47,0,0,0,.24,1.46V18.54A1.47,1.47,0,0,0,1.7,20h8.6a1.47,1.47,0,0,0,1.46-1.46V1.46A1.47,1.47,0,0,0,10.3,0Zm.88,15.9H2.88a.29.29,0,1,0,0,.58h8.3v2.06a.88.88,0,0,1-.88.87H1.7a.88.88,0,0,1-.88-.87V16.48H1.7a.29.29,0,1,0,0-.58H.82v-13H11.18Zm0-13.56H.82V1.46A.88.88,0,0,1,1.7.59h8.6a.88.88,0,0,1,.88.87Z"
		transform="translate(-0.24)"
	/>
	<path
		d="M7.17,1.17H6a.3.3,0,0,0,0,.59H7.17a.3.3,0,0,0,0-.59Z"
		transform="translate(-0.24)"
	/>
	<path
		d="M6,17.07a.88.88,0,1,0,.88.88A.88.88,0,0,0,6,17.07Zm0,1.17A.29.29,0,1,1,6.29,18,.29.29,0,0,1,6,18.24Z"
		transform="translate(-0.24)"
	/>
	<path
		d="M4.83,1.76a.3.3,0,1,0-.29-.3A.29.29,0,0,0,4.83,1.76Z"
		transform="translate(-0.24)"
	/>
</svg>
