<svg xmlns="http://www.w3.org/2000/svg" viewBox="0 0 15 15.18">
	<path
		d="M3.36,3.45A3.87,3.87,0,0,0,2.28,6.56a.55.55,0,0,0,.55.5h0a.55.55,0,0,0,.5-.61,2.75,2.75,0,0,1,.76-2.2.57.57,0,0,0,0-.8A.54.54,0,0,0,3.36,3.45Z"
	/>
	<path
		d="M14.84,14.22l-3.65-3.7A6.42,6.42,0,0,0,6.34,0a6.41,6.41,0,0,0,0,12.82,6.28,6.28,0,0,0,4.06-1.5L14.06,15a.54.54,0,0,0,.39.17.57.57,0,0,0,.39-1ZM1.11,6.41A5.26,5.26,0,0,1,6.34,1.12a5.26,5.26,0,0,1,5.22,5.29A5.32,5.32,0,0,1,10,10.14h0A5.15,5.15,0,0,1,6.34,11.7,5.26,5.26,0,0,1,1.11,6.41Z"
	/>
</svg>
