<svg xmlns="http://www.w3.org/2000/svg" viewBox="0 0 15 15">
	<path
		d="M15,9,13.86,8c0-.07,0-.84,0-.9S15,6,15,6a.63.63,0,0,0,.15-.61,8,8,0,0,0-.3-.85c-.13-.28-.27-.56-.43-.84a.61.61,0,0,0-.54-.29l-1.56.11s-.59-.59-.63-.63c0-.52,0-1,.05-1.56a.61.61,0,0,0-.29-.52A6.81,6.81,0,0,0,9.68.13a.58.58,0,0,0-.57.18l-1,1.16a5.27,5.27,0,0,0-.89,0L6.12.34A.57.57,0,0,0,5.55.18,7.24,7.24,0,0,0,3.8.92a.58.58,0,0,0-.27.53L3.63,3A6.33,6.33,0,0,0,3,3.65l-1.56,0a.57.57,0,0,0-.52.29,7.19,7.19,0,0,0-.7,1.76.58.58,0,0,0,.18.57l1.16,1a6.61,6.61,0,0,0,0,.89L.44,9.21a.57.57,0,0,0-.17.57A7.59,7.59,0,0,0,1,11.52a.56.56,0,0,0,.54.28l1.55-.1a6.41,6.41,0,0,0,.65.63l-.06,1.56a.6.6,0,0,0,.3.52,7.37,7.37,0,0,0,1.7.68.6.6,0,0,0,.62-.16l1-1.16a6.76,6.76,0,0,0,.9,0L9.31,14.9a.61.61,0,0,0,.62.14,7.34,7.34,0,0,0,1.68-.72.61.61,0,0,0,.29-.54c0-.52-.07-1-.11-1.56a4,4,0,0,0,.36-.35s.22-.29.27-.29l1.56.06a.6.6,0,0,0,.52-.3,6.72,6.72,0,0,0,.68-1.7A.59.59,0,0,0,15,9ZM7.71,10.5A2.89,2.89,0,1,1,10.6,7.62,2.88,2.88,0,0,1,7.71,10.5Z"
		transform="translate(-0.21 -0.11)"
	/>
</svg>
