<svg xmlns="http://www.w3.org/2000/svg" viewBox="0 0 16.92 22">
	<path
		d="M16.58,21h-.85V17.57h0c0-3.2-2.87-4.92-4.85-5.92,2-1,4.84-2.72,4.85-5.91h0V2.34h.85a.84.84,0,0,0,.84-.84.85.85,0,0,0-.84-.85H1.35A.85.85,0,0,0,.5,1.5a.84.84,0,0,0,.85.84h.84V5.73h0c0,3,2.44,4.72,4.79,5.92-2.35,1.21-4.78,2.9-4.79,5.92h0V21H1.35a.85.85,0,1,0,0,1.69H16.58a.85.85,0,0,0,0-1.69ZM3.88,5.73V2.34H14V5.72h0c0,2.32-2.35,3.65-4.55,4.72l-.56.27C6.5,9.58,3.89,8.24,3.88,5.73Zm0,11.85c0-2.52,2.62-3.85,5.05-5l.56.26c2.2,1.07,4.54,2.41,4.55,4.73h0V21H3.88Z"
		transform="translate(-0.5 -0.65)"
	/>
</svg>
