<svg xmlns="http://www.w3.org/2000/svg" viewBox="0 0 14.06 14.06">
	<path
		d="M7.5.47a7,7,0,0,0-2.9.62.24.24,0,0,0-.12.32l.42.84a.24.24,0,0,0,.31.11,5.62,5.62,0,0,1,6.94,8.29l-.73-.74a.31.31,0,0,0-.2-.07.24.24,0,0,0-.2.24v2.58a.23.23,0,0,0,.23.23h2.58a.23.23,0,0,0,.16-.4l-.83-.83A7,7,0,0,0,7.5.47ZM1.17,2.11a.24.24,0,0,0-.17.4l.84.83A7,7,0,0,0,10.4,13.91a.25.25,0,0,0,.12-.32l-.42-.84a.25.25,0,0,0-.31-.11A5.63,5.63,0,0,1,2.84,4.35l.74.74A.24.24,0,0,0,4,4.92V2.34a.23.23,0,0,0-.23-.23ZM7.5,3.75A3.75,3.75,0,1,0,11.25,7.5,3.75,3.75,0,0,0,7.5,3.75Zm0,.94a.21.21,0,0,1,.23.23v.5a1.17,1.17,0,0,1,.94,1.14.24.24,0,1,1-.47,0,.7.7,0,1,0-.7.71,1.17,1.17,0,0,1,.23,2.32v.49a.24.24,0,0,1-.47,0V9.59a1.18,1.18,0,0,1-.93-1.15.24.24,0,0,1,.47,0,.7.7,0,1,0,.7-.7A1.18,1.18,0,0,1,6.33,6.56a1.17,1.17,0,0,1,.93-1.14v-.5A.22.22,0,0,1,7.5,4.69Z"
		transform="translate(-0.47 -0.47)"
	/>
</svg>
