<svg xmlns="http://www.w3.org/2000/svg" viewBox="0 0 18 15">
	<path
		d="M18.12,1.89A7.32,7.32,0,0,1,16,2.48,3.75,3.75,0,0,0,17.62.39a7.39,7.39,0,0,1-2.35.92A3.62,3.62,0,0,0,12.58.11,3.75,3.75,0,0,0,8.88,3.9a4,4,0,0,0,.1.86A10.36,10.36,0,0,1,1.37.81,3.85,3.85,0,0,0,2.51,5.86,3.67,3.67,0,0,1,.84,5.39v.05a3.77,3.77,0,0,0,3,3.71,3.49,3.49,0,0,1-1,.13,3.26,3.26,0,0,1-.7-.07,3.71,3.71,0,0,0,3.45,2.63A7.25,7.25,0,0,1,1,13.47a6.29,6.29,0,0,1-.88-.06,10.19,10.19,0,0,0,5.66,1.7c6.79,0,10.5-5.77,10.5-10.77,0-.16,0-.33,0-.49A7.84,7.84,0,0,0,18.12,1.89Z"
		transform="translate(-0.12 -0.11)"
	/>
</svg>
