<?xml version="1.0" encoding="utf-8"?>
<!-- Generator: Adobe Illustrator 25.0.0, SVG Export Plug-In . SVG Version: 6.00 Build 0)  -->
<svg version="1.1" id="Layer_1" xmlns="http://www.w3.org/2000/svg" xmlns:xlink="http://www.w3.org/1999/xlink" x="0px" y="0px"
	 viewBox="0 0 56 56" style="enable-background:new 0 0 56 56;" xml:space="preserve">
<style type="text/css">
	.st0{clip-path:url(#SVGID_2_);}
	.st1{fill:#D59C2A;}
	.st2{fill:#E5B046;}
	.st3{fill:#EEF5F6;}
	.st4{fill:#E5B046;stroke:#000000;}
	.st5{fill:#CA9222;}
</style>
<g>
	<defs>
		<rect id="SVGID_1_" width="56" height="56"/>
	</defs>
	<clipPath id="SVGID_2_">
		<use xlink:href="#SVGID_1_"  style="overflow:visible;"/>
	</clipPath>
	<g class="st0">
		<path class="st1" d="M28,55.2C43,55.2,55.2,43,55.2,28S43,0.8,28,0.8S0.8,13,0.8,28S13,55.2,28,55.2z"/>
		<path class="st2" d="M29.6,55.1c-0.5,0-1,0-1.6,0C13,55.2,0.8,43,0.8,28S13,0.8,28,0.8c0.5,0,1.1,0,1.6,0C15.3,1.7,4,13.5,4,28
			S15.3,54.3,29.6,55.1z"/>
		<path class="st3" d="M28,50.8c12.6,0,22.8-10.2,22.8-22.8S40.6,5.2,28,5.2S5.2,15.4,5.2,28S15.4,50.8,28,50.8z"/>
		<path d="M28,56c-7.5,0-14.5-2.9-19.8-8.2C2.9,42.5,0,35.5,0,28c0-3.9,0.8-7.6,2.3-11.1c0.2-0.4,0.7-0.6,1.1-0.4
			c0.4,0.2,0.6,0.7,0.4,1.1C2.4,20.8,1.6,24.4,1.6,28c0,7,2.7,13.7,7.7,18.6c5,5,11.6,7.7,18.6,7.7s13.7-2.7,18.6-7.7
			c5-5,7.7-11.6,7.7-18.6s-2.7-13.7-7.7-18.6c-5-5-11.6-7.7-18.6-7.7c-4.6,0-9.1,1.2-13.1,3.5c-3.8,2.2-7.1,5.4-9.4,9.1
			c-0.2,0.4-0.7,0.5-1.1,0.3c-0.4-0.2-0.5-0.7-0.3-1.1c2.5-4,5.9-7.4,10-9.7C18.3,1.3,23.1,0,28,0c7.5,0,14.5,2.9,19.8,8.2
			C53.1,13.5,56,20.5,56,28s-2.9,14.5-8.2,19.8C42.5,53.1,35.5,56,28,56z"/>
		<path d="M28,51.6C15,51.6,4.4,41,4.4,28S15,4.4,28,4.4S51.6,15,51.6,28c0,1.9-0.2,3.8-0.7,5.6c-0.1,0.4-0.6,0.7-1,0.6
			c-0.4-0.1-0.7-0.6-0.6-1c0.4-1.7,0.6-3.4,0.6-5.2c0-12.1-9.9-22-22-22S6,15.9,6,28s9.9,22,22,22c8.8,0,16.7-5.2,20.2-13.3
			c0.2-0.4,0.7-0.6,1.1-0.4c0.4,0.2,0.6,0.7,0.4,1.1C45.9,46,37.4,51.6,28,51.6z"/>
		<path class="st4" d="M30.4,16.8v11.1c0,1.3-1,2.3-2.3,2.3c-1.3,0-2.3-1-2.3-2.3V16.8c0-1.3,1-2.3,2.3-2.3
			C29.4,14.5,30.4,15.5,30.4,16.8z"/>
		<path class="st5" d="M30,17v10.5c0,1.4-0.9,2.2-2,2.2V15C29.1,15,30,15.6,30,17z"/>
		<path class="st4" d="M24.5,37.6c0-2,1.6-3.7,3.7-3.7s3.7,1.6,3.7,3.7c0,2-1.6,3.7-3.7,3.7S24.5,39.6,24.5,37.6z"/>
	</g>
</g>
</svg>
