<svg id="Layer_1" data-name="Layer 1" xmlns="http://www.w3.org/2000/svg" viewBox="0 0 37.6 37.6"><defs><style>.cls-1{fill:#ccc;}.cls-2{fill:#f2f2f2;}.cls-3{fill:#fff;}</style></defs><path class="cls-1" d="M37.6,18.8a4.15,4.15,0,0,0-.55-2.06,4.2,4.2,0,0,0-1.5-1.52,4.14,4.14,0,0,0,.81-4,4.18,4.18,0,0,0-3-2.76c0-.05,0-.1,0-.14a4.19,4.19,0,0,0-4.18-4.18H29.1a4.15,4.15,0,0,0-1-1.83,4.14,4.14,0,0,0-3.86-1.23,4.11,4.11,0,0,0-1.87.92A4.2,4.2,0,0,0,20.86.55a4.13,4.13,0,0,0-4.12,0,4.2,4.2,0,0,0-1.52,1.5,4.11,4.11,0,0,0-1.87-.92,4.23,4.23,0,0,0-2.09.11A4.15,4.15,0,0,0,9.5,2.36a4.07,4.07,0,0,0-1,1.83H8.36A4.19,4.19,0,0,0,4.18,8.36s0,.09,0,.14a4.07,4.07,0,0,0-1.83,1,4.15,4.15,0,0,0-1.12,1.76,4.23,4.23,0,0,0-.11,2.09,4.11,4.11,0,0,0,.92,1.87,4.2,4.2,0,0,0-1.5,1.52,4.13,4.13,0,0,0,0,4.12,4.2,4.2,0,0,0,1.5,1.52A4.14,4.14,0,0,0,4.19,29.1s0,.1,0,.14a4.34,4.34,0,0,0,.31,1.6,4.21,4.21,0,0,0,3.87,2.58H8.5a4.13,4.13,0,0,0,2.76,3,4.22,4.22,0,0,0,2.09.11,4.11,4.11,0,0,0,1.87-.92,4.2,4.2,0,0,0,1.52,1.5,4.13,4.13,0,0,0,4.12,0,4.2,4.2,0,0,0,1.52-1.5,4.11,4.11,0,0,0,1.87.92,4.23,4.23,0,0,0,2.09-.11,4.18,4.18,0,0,0,2.76-3h.14a4.19,4.19,0,0,0,1.6-.32,4.19,4.19,0,0,0,2.58-3.86s0-.09,0-.14a4.15,4.15,0,0,0,1.83-1,4.14,4.14,0,0,0,1.23-3.86,4.11,4.11,0,0,0-.92-1.87,4.2,4.2,0,0,0,1.5-1.52A4.15,4.15,0,0,0,37.6,18.8Z"/><path class="cls-2" d="M18.8,30.4A11.6,11.6,0,1,0,7.2,18.8,11.6,11.6,0,0,0,18.8,30.4Z"/><path class="cls-3" d="M19,6.4A12.61,12.61,0,0,0,6.44,20,12.55,12.55,0,0,0,8.79,26.4h13.4a4.2,4.2,0,0,0,4.21-4.21V8.79A12.5,12.5,0,0,0,19,6.4Z"/></svg>