<svg xmlns="http://www.w3.org/2000/svg" viewBox="0 0 18.25 22">
	<path
		d="M18.19,19l-2.42-5.48a8.33,8.33,0,0,0,1.73-5.1,8.38,8.38,0,1,0-15,5.1L.05,19a.66.66,0,0,0,.12.7.64.64,0,0,0,.68.17l2.76-.94,1.15,2.68a.65.65,0,0,0,.59.39h0A.66.66,0,0,0,6,21.62L8.1,16.74a8.6,8.6,0,0,0,1,.06,8.77,8.77,0,0,0,1-.06l2.15,4.88a.65.65,0,0,0,.59.38h0a.63.63,0,0,0,.59-.39l1.16-2.68,2.76.94a.64.64,0,0,0,.79-.87Zm-12.83.74-.8-1.86a.64.64,0,0,0-.8-.36l-1.93.66,1.59-3.62A8.35,8.35,0,0,0,6.8,16.47Zm3.76-4.23a7.11,7.11,0,1,1,7.09-7.09A7.1,7.1,0,0,1,9.12,15.51Zm5.37,2a.64.64,0,0,0-.8.36l-.81,1.86-1.44-3.27a8.28,8.28,0,0,0,3.38-1.91l1.6,3.62Z"
	/>
	<path
		d="M12.89,6.59l-2.2-.32-1-2a.64.64,0,0,0-.58-.36.63.63,0,0,0-.57.36l-1,2-2.21.32A.64.64,0,0,0,4.83,7,.65.65,0,0,0,5,7.69L6.59,9.24l-.38,2.2a.64.64,0,0,0,.26.63.62.62,0,0,0,.68,0l2-1,2,1a.62.62,0,0,0,.68,0,.66.66,0,0,0,.25-.63l-.38-2.2,1.6-1.55A.63.63,0,0,0,13.41,7,.61.61,0,0,0,12.89,6.59Zm-2.38,2a.64.64,0,0,0-.18.57l.21,1.24L9.42,9.79a.64.64,0,0,0-.6,0l-1.11.58.21-1.24a.62.62,0,0,0-.19-.57l-.9-.88L8.08,7.5a.66.66,0,0,0,.48-.36L9.12,6l.56,1.13a.7.7,0,0,0,.49.36l1.25.18Z"
	/>
</svg>
