<svg id="Layer_1" data-name="Layer 1" xmlns="http://www.w3.org/2000/svg" viewBox="0 0 36 36"><defs><style>.cls-1{fill:#ce7335;}.cls-2{fill:#ff9840;}.cls-3{fill:#ffad66;}</style></defs><path class="cls-1" d="M36,18a3.91,3.91,0,0,0-.53-2A4.08,4.08,0,0,0,34,14.57a4,4,0,0,0,.88-1.79,4,4,0,0,0-1.18-3.69A4,4,0,0,0,32,8.14c0-.05,0-.09,0-.14a4,4,0,0,0-.3-1.53A4,4,0,0,0,29.53,4.3,4,4,0,0,0,28,4h-.14a4,4,0,0,0-.95-1.75,4,4,0,0,0-3.69-1.18A4,4,0,0,0,21.43,2,3.93,3.93,0,0,0,20,.53,3.93,3.93,0,0,0,16,.53,4,4,0,0,0,14.57,2a4,4,0,0,0-1.79-.88A4,4,0,0,0,9.09,2.26,4,4,0,0,0,8.14,4H8a4,4,0,0,0-1.53.3A4,4,0,0,0,4.3,6.47,4,4,0,0,0,4,8c0,.05,0,.09,0,.14a4,4,0,0,0-1.75.95,4,4,0,0,0-1.18,3.69A4,4,0,0,0,2,14.57,4,4,0,0,0,.53,16,3.93,3.93,0,0,0,.53,20,3.93,3.93,0,0,0,2,21.43a4,4,0,0,0-.88,1.79,3.89,3.89,0,0,0,.11,2,4,4,0,0,0,1.06,1.69A4,4,0,0,0,4,27.86C4,27.91,4,28,4,28a4,4,0,0,0,.3,1.53,4,4,0,0,0,.87,1.3,4.12,4.12,0,0,0,1.3.87A4,4,0,0,0,8,32h.14a4,4,0,0,0,.95,1.75,4,4,0,0,0,3.69,1.18A4,4,0,0,0,14.57,34,4,4,0,0,0,20,35.47,4,4,0,0,0,21.42,34a4.1,4.1,0,0,0,1.8.88,4,4,0,0,0,3.69-1.18A4,4,0,0,0,27.86,32H28a4,4,0,0,0,1.53-.3,4.24,4.24,0,0,0,1.3-.87,3.93,3.93,0,0,0,.86-1.3A3.88,3.88,0,0,0,32,28a.68.68,0,0,0,0-.14,3.93,3.93,0,0,0,1.76-.95,3.88,3.88,0,0,0,1.07-1.69A3.95,3.95,0,0,0,34,21.43,4.08,4.08,0,0,0,35.47,20,3.91,3.91,0,0,0,36,18Z"/><path class="cls-2" d="M18,31.2A13.2,13.2,0,1,0,4.8,18,13.2,13.2,0,0,0,18,31.2Z"/><path class="cls-3" d="M16.63,4A12.61,12.61,0,0,0,4,17.57,12.55,12.55,0,0,0,6.39,24h13.4A4.2,4.2,0,0,0,24,19.79V6.39A12.5,12.5,0,0,0,16.63,4Z"/></svg>