<svg id="Layer_1" data-name="Layer 1" xmlns="http://www.w3.org/2000/svg" viewBox="0 0 36 36"><defs><style>.cls-1{fill:#f3a845;}.cls-2{fill:#eecc61;}.cls-3{fill:#f1d681;}</style></defs><path class="cls-1" d="M36.12,18.89a4.12,4.12,0,0,0-.53-2,4,4,0,0,0-1.44-1.45,4,4,0,0,0,.89-1.8A4,4,0,0,0,33.86,10,4,4,0,0,0,32.1,9s0-.09,0-.14a4.06,4.06,0,0,0-.31-1.53A4,4,0,0,0,29.65,5.2a4.07,4.07,0,0,0-1.54-.31l-.13,0a3.86,3.86,0,0,0-1-1.76A4,4,0,0,0,23.34,2a4,4,0,0,0-1.8.88,4,4,0,0,0-1.45-1.43,3.94,3.94,0,0,0-3.95,0,4,4,0,0,0-1.45,1.43A4,4,0,0,0,12.89,2,4,4,0,0,0,8.25,4.91l-.13,0a4,4,0,0,0-1.53.31,3.93,3.93,0,0,0-1.3.86,4.18,4.18,0,0,0-.87,1.3,4,4,0,0,0-.3,1.53s0,.09,0,.14a4,4,0,0,0-1.76,1A4.13,4.13,0,0,0,1.3,11.67a4,4,0,0,0-.1,2,3.85,3.85,0,0,0,.88,1.8A3.93,3.93,0,0,0,.64,16.92a4,4,0,0,0,0,3.95,3.93,3.93,0,0,0,1.44,1.45,3.93,3.93,0,0,0-.89,1.79,4.11,4.11,0,0,0,.11,2A4,4,0,0,0,2.37,27.8a4.05,4.05,0,0,0,1.76,1s0,.09,0,.13a4,4,0,0,0,.31,1.53,3.81,3.81,0,0,0,.87,1.3,3.92,3.92,0,0,0,2.82,1.17h.14a3.91,3.91,0,0,0,1,1.76,4,4,0,0,0,1.69,1.07,4,4,0,0,0,2,.1,3.9,3.9,0,0,0,1.8-.88,4,4,0,0,0,6.85,0,3.92,3.92,0,0,0,1.79.88A4,4,0,0,0,28,32.88h.13a4,4,0,0,0,4-4s0-.09,0-.13a4.11,4.11,0,0,0,1.76-1A3.93,3.93,0,0,0,35,24.11a3.92,3.92,0,0,0-.88-1.79,4,4,0,0,0,1.44-1.45A4.19,4.19,0,0,0,36.12,18.89Z" transform="translate(-0.12 -0.89)"/><path class="cls-2" d="M18.11,31.29a12.4,12.4,0,1,0-12.4-12.4A12.4,12.4,0,0,0,18.11,31.29Z" transform="translate(-0.12 -0.89)"/><path class="cls-3" d="M17.55,5.69a12.62,12.62,0,0,0-10.25,20H20.7a4.2,4.2,0,0,0,4.21-4.21V8.08A12.56,12.56,0,0,0,17.55,5.69Z" transform="translate(-0.12 -0.89)"/></svg>