<svg xmlns="http://www.w3.org/2000/svg" viewBox="0 0 15 14.06">
	<path
		d="M8,2.81v.07h.47a.47.47,0,0,1,0,.94H7.23a.2.2,0,0,0,0,.4h.54A1.14,1.14,0,0,1,8,6.48v.08a.47.47,0,1,1-.94,0V6.5H6.56a.47.47,0,0,1,0-.94H7.77a.2.2,0,0,0,0-.4H7.23A1.14,1.14,0,0,1,7,2.9V2.81a.47.47,0,0,1,.94,0Z"
	/>
	<path
		fill-rule="evenodd"
		d="M1.41,0A1.41,1.41,0,0,0,0,1.41V8A1.41,1.41,0,0,0,1.41,9.38H13.59A1.41,1.41,0,0,0,15,8V1.41A1.41,1.41,0,0,0,13.59,0ZM2.93,5.16H4.25a3.41,3.41,0,0,0,.1.46H1.88a.47.47,0,1,0,0,.94H4.8a3.28,3.28,0,0,0,6-1.39h1.32a.47.47,0,0,0,0-.94H10.75a3.56,3.56,0,0,0-.1-.47h2.47a.47.47,0,1,0,0-.94H10.31l-.11,0A3.28,3.28,0,0,0,4.25,4.22H2.93a.47.47,0,0,0,0,.94Z"
	/>
	<path
		d="M7.15,13.91a.48.48,0,0,0,.7,0l1.4-1.53a.47.47,0,1,0-.69-.64L8,12.39V10.78a.47.47,0,1,0-.94,0v1.61l-.59-.65a.47.47,0,1,0-.69.64Z"
	/>
</svg>
